# xmcd
#
# Track frame offsets:
#   150
#   17479
#   35807
#   63069
#   81612
#   100522
#   114851
#   148146
#   161997
#   180959
#   193821
#   206640
#   227567
#   240232
#   255559
#
# Disc length: 3622 seconds
#
# Revision: 0
# Processed by: cddbd v1.4PL0 Copyright (c) Steve Scherf et al.
# Submitted via: uFREEDB 1.6.0
#
DISCID=c10e240f
DTITLE=Cuerdas espartanas - 30 años
DYEAR=2002
DGENRE=Country
TTITLE0=500 años
TTITLE1=Aguinaldo del marinero
TTITLE2=Cristo y los rumbos
TTITLE3=De rama en rama
TTITLE4=El sabalo
TTITLE5=El salinero
TTITLE6=Imagen
TTITLE7=La burra
TTITLE8=La cerbatana
TTITLE9=Los carites
TTITLE10=los zapatos maqueros
TTITLE11=Mariposa extraviada
TTITLE12=Pidiendo fiao
TTITLE13=Puerto moreno
TTITLE14=triste marino
EXTD=
EXTT0=
EXTT1=
EXTT2=
EXTT3=
EXTT4=
EXTT5=
EXTT6=
EXTT7=
EXTT8=
EXTT9=
EXTT10=
EXTT11=
EXTT12=
EXTT13=
EXTT14=
PLAYORDER=
